<mxfile host="app.diagrams.net" modified="2023-08-24T06:12:18.591Z" agent="Mozilla/5.0 (Windows NT 10.0; Win64; x64) AppleWebKit/537.36 (KHTML, like Gecko) Chrome/116.0.0.0 Safari/537.36 Edg/116.0.1938.54" etag="-uT4atQGLoXqLKxQ7Znm" version="21.6.9" type="github">
  <diagram name="第 1 页" id="CWuAyleLhy3Zyp6WkLwi">
    <mxGraphModel dx="1379" dy="764" grid="1" gridSize="10" guides="1" tooltips="1" connect="1" arrows="1" fold="1" page="1" pageScale="1" pageWidth="827" pageHeight="1169" math="0" shadow="0">
      <root>
        <mxCell id="0" />
        <mxCell id="1" parent="0" />
        <mxCell id="amn2PHYWtZ2Sav2Mm2Ex-6" value="Classname" style="swimlane;fontStyle=1;align=center;verticalAlign=top;childLayout=stackLayout;horizontal=1;startSize=26;horizontalStack=0;resizeParent=1;resizeParentMax=0;resizeLast=0;collapsible=1;marginBottom=0;whiteSpace=wrap;html=1;" parent="1" vertex="1">
          <mxGeometry x="180" y="190" width="360" height="160" as="geometry" />
        </mxCell>
        <mxCell id="amn2PHYWtZ2Sav2Mm2Ex-7" value="&lt;div data-lake_diagram_content_editor_data=&quot;true&quot; style=&quot;font-size: 13px;&quot;&gt;&lt;div style=&quot;text-align: center; font-size: 13px;&quot;&gt;&lt;div style=&quot;text-align: left; font-size: 13px;&quot;&gt;&lt;div data-lake_diagram_content_editor_data=&quot;true&quot; style=&quot;font-size: 13px;&quot;&gt;&lt;div style=&quot;text-align: center; font-size: 13px;&quot;&gt;&lt;div style=&quot;text-align: left; font-size: 13px;&quot;&gt;Store&lt;/div&gt;&lt;div style=&quot;text-align: left; font-size: 13px;&quot;&gt;Index(indexName string, obj interface{}) ([]interface{}, error)&lt;/div&gt;&lt;div style=&quot;text-align: left; font-size: 13px;&quot;&gt;IndexKeys(indexName, indexKey string) ([]string, error)&lt;/div&gt;&lt;div style=&quot;text-align: left; font-size: 13px;&quot;&gt;istIndexFuncValues(indexName string) []string&lt;br style=&quot;font-size: 13px;&quot;&gt;&lt;/div&gt;&lt;div style=&quot;text-align: left; font-size: 13px;&quot;&gt;ByIndex(indexName, indexKey string) ([]interface{}, error)&lt;br style=&quot;font-size: 13px;&quot;&gt;&lt;/div&gt;&lt;div style=&quot;text-align: left; font-size: 13px;&quot;&gt;GetIndexers() Indexers&lt;br style=&quot;font-size: 13px;&quot;&gt;&lt;/div&gt;&lt;div style=&quot;text-align: left; font-size: 13px;&quot;&gt;AddIndexers(newIndexers Indexers) error&lt;br style=&quot;font-size: 13px;&quot;&gt;&lt;/div&gt;&lt;div style=&quot;text-align: left; font-size: 13px;&quot;&gt;&lt;/div&gt;&lt;/div&gt;&lt;/div&gt;&lt;/div&gt;&lt;div style=&quot;text-align: left; font-size: 13px;&quot;&gt;&lt;/div&gt;&lt;/div&gt;&lt;/div&gt;" style="text;strokeColor=none;fillColor=none;align=left;verticalAlign=top;spacingLeft=4;spacingRight=4;overflow=hidden;rotatable=0;points=[[0,0.5],[1,0.5]];portConstraint=eastwest;whiteSpace=wrap;html=1;fontSize=13;" parent="amn2PHYWtZ2Sav2Mm2Ex-6" vertex="1">
          <mxGeometry y="26" width="360" height="124" as="geometry" />
        </mxCell>
        <mxCell id="amn2PHYWtZ2Sav2Mm2Ex-8" value="" style="line;strokeWidth=1;fillColor=none;align=left;verticalAlign=middle;spacingTop=-1;spacingLeft=3;spacingRight=3;rotatable=0;labelPosition=right;points=[];portConstraint=eastwest;strokeColor=inherit;" parent="amn2PHYWtZ2Sav2Mm2Ex-6" vertex="1">
          <mxGeometry y="150" width="360" height="10" as="geometry" />
        </mxCell>
        <mxCell id="lxzzW6f_GaP5f6k6Knvs-1" value="Classname" style="swimlane;fontStyle=1;align=center;verticalAlign=top;childLayout=stackLayout;horizontal=1;startSize=26;horizontalStack=0;resizeParent=1;resizeParentMax=0;resizeLast=0;collapsible=1;marginBottom=0;whiteSpace=wrap;html=1;" vertex="1" parent="1">
          <mxGeometry x="220" y="390" width="360" height="160" as="geometry" />
        </mxCell>
        <mxCell id="lxzzW6f_GaP5f6k6Knvs-2" value="&lt;div data-lake_diagram_content_editor_data=&quot;true&quot; style=&quot;font-size: 13px;&quot;&gt;&lt;div style=&quot;text-align: center; font-size: 13px;&quot;&gt;&lt;div style=&quot;text-align: left; font-size: 13px;&quot;&gt;&lt;div data-lake_diagram_content_editor_data=&quot;true&quot; style=&quot;font-size: 13px;&quot;&gt;&lt;div style=&quot;text-align: center; font-size: 13px;&quot;&gt;&lt;div style=&quot;text-align: left; font-size: 13px;&quot;&gt;Store&lt;/div&gt;&lt;div style=&quot;text-align: left; font-size: 13px;&quot;&gt;Index(indexName string, obj interface{}) ([]interface{}, error)&lt;/div&gt;&lt;div style=&quot;text-align: left; font-size: 13px;&quot;&gt;IndexKeys(indexName, indexKey string) ([]string, error)&lt;/div&gt;&lt;div style=&quot;text-align: left; font-size: 13px;&quot;&gt;istIndexFuncValues(indexName string) []string&lt;br style=&quot;font-size: 13px;&quot;&gt;&lt;/div&gt;&lt;div style=&quot;text-align: left; font-size: 13px;&quot;&gt;ByIndex(indexName, indexKey string) ([]interface{}, error)&lt;br style=&quot;font-size: 13px;&quot;&gt;&lt;/div&gt;&lt;div style=&quot;text-align: left; font-size: 13px;&quot;&gt;GetIndexers() Indexers&lt;br style=&quot;font-size: 13px;&quot;&gt;&lt;/div&gt;&lt;div style=&quot;text-align: left; font-size: 13px;&quot;&gt;AddIndexers(newIndexers Indexers) error&lt;br style=&quot;font-size: 13px;&quot;&gt;&lt;/div&gt;&lt;div style=&quot;text-align: left; font-size: 13px;&quot;&gt;&lt;/div&gt;&lt;/div&gt;&lt;/div&gt;&lt;/div&gt;&lt;div style=&quot;text-align: left; font-size: 13px;&quot;&gt;&lt;/div&gt;&lt;/div&gt;&lt;/div&gt;" style="text;strokeColor=none;fillColor=none;align=left;verticalAlign=top;spacingLeft=4;spacingRight=4;overflow=hidden;rotatable=0;points=[[0,0.5],[1,0.5]];portConstraint=eastwest;whiteSpace=wrap;html=1;fontSize=13;" vertex="1" parent="lxzzW6f_GaP5f6k6Knvs-1">
          <mxGeometry y="26" width="360" height="124" as="geometry" />
        </mxCell>
        <mxCell id="lxzzW6f_GaP5f6k6Knvs-3" value="" style="line;strokeWidth=1;fillColor=none;align=left;verticalAlign=middle;spacingTop=-1;spacingLeft=3;spacingRight=3;rotatable=0;labelPosition=right;points=[];portConstraint=eastwest;strokeColor=inherit;" vertex="1" parent="lxzzW6f_GaP5f6k6Knvs-1">
          <mxGeometry y="150" width="360" height="10" as="geometry" />
        </mxCell>
      </root>
    </mxGraphModel>
  </diagram>
</mxfile>
